<?xml version="1.0" encoding="utf-8"?>
<!-- Generator: Adobe Illustrator 16.0.0, SVG Export Plug-In . SVG Version: 6.00 Build 0)  -->
<!DOCTYPE svg PUBLIC "-//W3C//DTD SVG 1.1//EN" "http://www.w3.org/Graphics/SVG/1.1/DTD/svg11.dtd">
<svg version="1.1" id="Layer_1" xmlns="http://www.w3.org/2000/svg" xmlns:xlink="http://www.w3.org/1999/xlink" x="0px" y="0px"
	 width="1000px" height="1000px" viewBox="0 0 1000 1000" enable-background="new 0 0 1000 1000" xml:space="preserve">
<g>
	<path fill="#FFFFFF" d="M183.24,415.183l36.018,0.136v15.086h-7.475v16.854h32.482v-16.854h-7.475v-15.222h36.018v15.222h-11.009
		v49.607h11.009v15.222h-35.746v-15.222h7.203v-17.533h-32.482v17.533h7.203v15.222H183.24v-15.222h11.009v-49.607H183.24V415.183z"
		/>
	<path fill="#FFFFFF" d="M284.63,415.183h62.111l8.425,25.144l-14.405,4.892l-5.028-14.814h-22.563v16.717h22.152v15.086h-22.152
		v17.804h26.231l4.756-13.319l14.272,5.028l-8.155,23.513h-65.783v-15.222h11.009l0.137-49.607H284.63V415.183z"/>
	<path fill="#FFFFFF" d="M368.35,415.183h42.813v15.222h-13.456v49.607h20.116l4.756-13.319l14.408,5.028l-8.155,23.513H368.35
		v-15.222h12.096v-49.607H368.35V415.183z"/>
	<path fill="#FFFFFF" d="M447.72,493.061l-2.447-19.3l14.135-1.767l1.36,9.785c5.071,1.722,10.372,2.583,15.902,2.583
		c5.525,0,10.077-0.952,13.659-2.854c3.577-1.903,5.367-4.621,5.367-8.155c0-2.809-0.95-5.097-2.854-6.864
		c-1.902-1.767-5.527-3.102-10.871-4.01l-9.652-1.767c-17.124-3.078-25.686-11.098-25.686-24.056c0-7.973,3.147-14.043,9.445-18.212
		c6.296-4.167,14.112-6.252,23.446-6.252c9.15,0,17.577,1.767,25.279,5.301l2.719,21.067l-15.36,1.63l-1.767-12.641
		c-3.987-1.267-7.836-1.902-11.551-1.902c-5.077,0-9.086,0.883-12.03,2.65c-2.945,1.767-4.417,4.056-4.417,6.863
		c0,2.99,1.042,5.325,3.126,7c2.083,1.678,5.797,2.968,11.146,3.874l9.377,1.631c8.878,1.359,15.265,3.964,19.164,7.815
		c3.896,3.852,5.843,9.085,5.843,15.697c0,10.058-3.284,17.081-9.853,21.067c-6.571,3.986-14.293,5.98-23.174,5.98
		C466.52,498.225,456.42,496.503,447.72,493.061z"/>
	<path fill="#FFFFFF" d="M522.47,415.183h43.218v15.222h-12.908v49.607h12.908v15.222h-43.353v-15.222h13.046v-49.607H522.47
		V415.183z"/>
	<path fill="#FFFFFF" d="M577.514,415.183h36.968l26.91,55.316v-40.094h-10.059v-15.222h37.92v15.222h-12.501v64.83h-20.118
		L603.88,430.27v49.743h11.418v15.222h-37.919v-15.222h11.278v-49.607h-11.144V415.183z"/>
	<path fill="#FFFFFF" d="M679.034,415.183h35.883v15.222h-7.475v17.804h9.241l13.046-17.804h-5.57v-15.222h36.015v15.222h-12.775
		l-18.076,22.425l20.525,27.182h13.728v15.222h-41.453v-15.222h8.967l-12.775-17.125h-10.871v17.125h7.475v15.222h-35.883v-15.222
		h11.009v-49.607h-11.009V415.183z"/>
	<path fill="#FFFFFF" d="M774.447,415.183h43.22v15.222h-12.913v49.607h12.913v15.222H774.31v-15.222h13.046v-49.607h-12.908
		V415.183z"/>
</g>
<g>
	<path fill="#FFFFFF" d="M183.241,572.204h9.488v-42.753h-9.488V516.33h31.042c9.292,0,16.4,1.623,21.319,4.861
		c4.921,3.243,7.38,7.868,7.38,13.881c0,3.516-0.801,6.56-2.401,9.137c-1.603,2.577-3.886,4.609-6.854,6.093
		c3.67,1.094,6.481,2.984,8.434,5.681c1.951,2.693,2.929,6.149,2.929,10.367c0,6.091-2.011,10.775-6.032,14.058
		c-4.023,3.277-9.86,4.919-17.513,4.919h-38.304V572.204z M219.672,544.914c2.499,0,4.394-0.664,5.681-1.991
		c1.29-1.328,1.933-3.204,1.933-5.626c0-2.577-0.996-4.527-2.987-5.854s-4.901-1.991-8.727-1.991h-7.731v15.463H219.672z
		 M218.852,572.204c3.436,0,6.071-0.661,7.908-1.991c1.833-1.325,2.753-3.277,2.753-5.854c0-2.499-0.862-4.394-2.577-5.683
		c-1.72-1.289-4.179-1.934-7.381-1.934H207.84v15.462H218.852z"/>
	<path fill="#FFFFFF" d="M254.345,516.33h53.532l7.264,21.672l-12.418,4.216l-4.333-12.767h-19.445v14.407h19.092v13.003h-19.092
		v15.343h22.607l4.1-11.478l12.301,4.332l-7.029,20.268h-56.696v-13.122h9.488l0.118-42.753h-9.488V516.33z"/>
	<path fill="#FFFFFF" d="M326.618,516.33h53.533l7.262,21.672l-12.417,4.216l-4.333-12.767h-19.446v14.407h19.094v13.003h-19.094
		v15.343h22.608l4.101-11.478l12.3,4.332l-7.028,20.268h-56.696v-13.122h9.488l0.118-42.753h-9.489V516.33z"/>
	<path fill="#FFFFFF" d="M464.492,572.204v13.122h-20.968l-12.183-22.492h-8.083v9.37h5.623v13.122h-30.105v-13.122h9.372v-42.753
		h-9.372V516.33h30.925c10.463,0,17.747,1.973,21.847,5.916c4.099,3.943,6.15,9.741,6.15,17.395
		c0,11.011-4.141,18.117-12.418,21.321l7.029,11.242H464.492z M428.999,549.832c4.919,0,8.335-0.741,10.25-2.227
		c1.912-1.483,2.869-4.139,2.869-7.965c0-3.824-1.075-6.481-3.222-7.965c-2.148-1.483-5.446-2.225-9.897-2.225h-5.622v20.381
		H428.999z"/>
	<path fill="#FFFFFF" d="M500.334,516.33l31.041,0.116v13.005h-6.442v14.524h28v-14.524h-6.442V516.33h31.039v13.121h-9.488v42.753
		h9.488v13.122h-30.809v-13.122h6.212v-15.11h-28v15.11h6.212v13.122h-30.81v-13.122h9.488v-42.753h-9.488V516.33z"/>
	<path fill="#FFFFFF" d="M643.715,580.934c-4.604,4.644-11.439,6.969-20.498,6.969c-9.137,0-16.048-2.305-20.735-6.909
		c-4.683-4.609-7.026-11.441-7.026-20.503v-31.039h-9.489V516.33h31.04v13.121h-6.44v33.031c0,4.609,1.034,7.928,3.104,9.958
		c2.068,2.032,5.25,3.046,9.548,3.046c4.139,0,7.219-1.131,9.251-3.398c2.033-2.264,3.044-5.857,3.044-10.775v-31.861h-6.439V516.33
		h31.158v13.121h-9.604v31.039C650.627,569.474,648.32,576.287,643.715,580.934z"/>
	<path fill="#FFFFFF" d="M668.785,516.33h31.859l23.194,47.676v-34.555h-8.665V516.33h32.678v13.121h-10.775v55.875h-17.339
		l-28.229-55.994v42.872h9.842v13.122h-32.683v-13.122h9.722v-42.753h-9.604V516.33z"/>
	<path fill="#FFFFFF" d="M754.525,516.33h63.142v24.949h-13.124v-11.828h-10.89v42.753h9.485v13.122h-34.322v-13.122h9.608v-42.753
		h-10.775v11.828h-13.124V516.33z"/>
</g>
</svg>
