<?xml version="1.0" encoding="utf-8"?>
<!-- Generator: Adobe Illustrator 16.0.0, SVG Export Plug-In . SVG Version: 6.00 Build 0)  -->
<!DOCTYPE svg PUBLIC "-//W3C//DTD SVG 1.1//EN" "http://www.w3.org/Graphics/SVG/1.1/DTD/svg11.dtd">
<svg version="1.1" id="Layer_1" xmlns="http://www.w3.org/2000/svg" xmlns:xlink="http://www.w3.org/1999/xlink" x="0px" y="0px"
	 width="1000px" height="1000px" viewBox="0 0 1000 1000" enable-background="new 0 0 1000 1000" xml:space="preserve">
<polygon fill="#F17F42" points="383.041,471.238 405.235,465.487 422.332,445.44 451.011,452.475 476.699,431.569 562.137,441.9 
	570.31,551.741 570.31,647.972 584.18,697.908 560.601,712.759 396.911,712.759 360.872,700.763 385.816,646.58 383.041,484.41 "/>
<g>
	<path d="M600.965,457.433h-23.304v-16.321c17.707-3.609,31.064-19.296,31.064-38.04c0-21.417-17.417-38.835-38.826-38.835
		c-8.177,0-15.903,2.511-22.353,7.12c-8.278-13.761-23.315-22.653-39.781-22.653c-10.832,0-21.288,3.869-29.603,10.802
		c-9.344-7.006-20.653-10.802-32.528-10.802c-21.291,0-40.229,12.371-49.056,31.423c-28.436-3.812-51.906,18.8-51.906,46.24
		c0,20.223,13.029,37.308,31.062,43.729v158.977c0,18.621-4.393,37.258-12.721,53.904c-1.837,3.683-2.804,7.795-2.804,11.899
		c0,14.68,11.936,26.611,26.611,26.611h179.762c14.68,0,26.615-11.932,26.615-26.611c0-4.104-0.972-8.217-2.809-11.908
		c-6.116-12.231-10.079-25.552-11.762-39.144h22.337c29.971,0,54.362-24.385,54.362-54.361v-77.67
		C655.324,481.824,630.936,457.433,600.965,457.433L600.965,457.433z M360.209,426.367c0-17.133,13.932-31.064,31.062-31.064
		c2.435,0,5.015,0.398,8.107,1.235c4.056,1.113,8.193-1.171,9.445-5.146c5.166-16.24,19.95-27.155,36.812-27.155
		c10.327,0,20.043,4.023,27.378,11.314c1.533,1.52,3.719,2.463,5.771,2.251c2.158-0.073,4.186-1.057,5.584-2.682
		c5.966-6.917,14.504-10.883,23.397-10.883c13.703,0,25.928,9.298,29.719,22.604c0.81,2.845,3.179,4.982,6.092,5.519
		c2.979,0.544,5.881-0.65,7.628-3.041c4.479-6.071,11.291-9.55,18.695-9.55c12.846,0,23.299,10.452,23.299,23.302
		c0,12.842-10.453,23.295-23.299,23.295h-76.866c-0.204-2.397-1.366-4.689-3.589-6.03c-3.69-2.219-8.461-1.032-10.664,2.641
		c-10.123,16.833-31.37,24.035-50.109,14.833c-3.726-1.829-8.253-0.374-10.237,3.275c-5.486,10.079-15.894,16.346-27.163,16.346
		C374.141,457.433,360.209,443.501,360.209,426.367L360.209,426.367z M577.661,504.03h23.304c4.283,0,7.761,3.478,7.761,7.764v77.67
		c0,4.283-3.478,7.762-7.761,7.762h-23.304V504.03z M566.583,705.964H386.821c-6.112,0-11.086-4.975-11.086-11.087
		c0-1.706,0.402-3.429,1.17-4.957c9.4-18.784,14.367-39.82,14.367-60.847V472.965c14.618,0,28.236-6.958,36.974-18.524
		c19.592,6.836,40.648,1.268,54.921-12.542h78.971v187.173c0,21.026,4.958,42.063,14.358,60.838c0.768,1.537,1.166,3.26,1.166,4.966
		C577.661,700.989,572.699,705.964,566.583,705.964L566.583,705.964z M639.795,589.464c0,21.408-17.423,38.83-38.83,38.83h-23.304
		v-15.533h23.304c12.85,0,23.299-10.446,23.299-23.297v-77.67c0-12.844-10.449-23.297-23.299-23.297h-23.304v-15.532h23.304
		c21.407,0,38.83,17.427,38.83,38.829V589.464z M639.795,589.464"/>
	<path d="M430.106,488.497c-4.3,0-7.774,3.48-7.774,7.772v155.327c0,4.29,3.474,7.77,7.774,7.77c4.292,0,7.762-3.479,7.762-7.77
		V496.27C437.868,491.978,434.398,488.497,430.106,488.497L430.106,488.497z M430.106,488.497"/>
	<path d="M476.704,488.497c-4.291,0-7.77,3.48-7.77,7.772v155.327c0,4.29,3.479,7.77,7.77,7.77c4.292,0,7.762-3.479,7.762-7.77
		V496.27C484.466,491.978,480.996,488.497,476.704,488.497L476.704,488.497z M476.704,488.497"/>
	<path d="M523.293,488.497c-4.283,0-7.753,3.48-7.753,7.772v155.327c0,4.29,3.47,7.77,7.753,7.77c4.3,0,7.771-3.479,7.771-7.77
		V496.27C531.064,491.978,527.593,488.497,523.293,488.497L523.293,488.497z M523.293,488.497"/>
</g>
</svg>
