<?xml version="1.0" encoding="utf-8"?>
<!-- Generator: Adobe Illustrator 16.0.0, SVG Export Plug-In . SVG Version: 6.00 Build 0)  -->
<!DOCTYPE svg PUBLIC "-//W3C//DTD SVG 1.1//EN" "http://www.w3.org/Graphics/SVG/1.1/DTD/svg11.dtd">
<svg version="1.1" id="Layer_1" xmlns="http://www.w3.org/2000/svg" xmlns:xlink="http://www.w3.org/1999/xlink" x="0px" y="0px"
	 width="1000px" height="1000px" viewBox="0 0 1000 1000" enable-background="new 0 0 1000 1000" xml:space="preserve">
<g>
	<path fill="#F17F42" d="M374.646,445.119l6.947,38.363l18.116,73.529l12.788,47.953l7.459,50.084v38.467l5.328,22.275l17.591,6.395
		h62.331l41.552-1.383v-41.244l12.796-95.906l13.854-50.086l19.182-88.447h-24.51l-15.307,1.124l-1.744,11.664l-14.918-2.131
		l-11.668-10.656c0,0-18.25,0.482-22.433,0c-4.184-0.483,2.131,24.51,2.131,24.51s-4.388,12.438-2.131,14.919
		c2.256,2.48-3.197,28.771-3.197,28.771l2.132,9.591c0,0,0,11.723-3.197,11.723s-14.087,1.066-14.087,1.066
		s-12.671-4.463-12.08-7.027c0.592-2.564-0.475-83.561-0.475-83.561h-9.59c0,0-22.641,2.789-25.575,3.206
		c-2.935,0.417-18.116-9.591-18.116-9.591l-30.392,1.083L374.646,445.119z"/>
	<g>
		<path d="M596.094,375.07c-2.527-2.548-5.886-3.955-9.449-3.955h-0.384v-0.425c0-14.911-12.134-27.044-27.044-27.044
			c-3.867,0-7.63,0.828-11.118,2.435c-6.253-5.969-14.453-9.308-23.229-9.308c-4.396,0-8.674,0.874-12.779,2.597
			c-8.208-6.127-18.148-9.461-28.435-9.461c-10.277,0-20.218,3.334-28.427,9.461c-4.104-1.723-8.388-2.597-12.779-2.597
			c-8.774,0-16.979,3.338-23.231,9.308c-3.488-1.607-7.247-2.435-11.114-2.435c-14.911,0-27.045,12.134-27.045,27.044v0.433h-0.395
			c-3.567,0-6.918,1.398-9.437,3.938c-2.526,2.548-3.904,5.919-3.879,9.495c0.641,81.592,12.617,124.489,24.206,165.972
			c11.094,39.717,22.562,80.781,23.748,157.027c0.171,10.961,9.204,19.873,20.13,19.873h96.449c10.935,0,19.972-8.912,20.139-19.873
			c1.178-76.25,12.654-117.311,23.743-157.031c11.589-41.479,23.561-84.376,24.206-165.968
			C599.998,380.985,598.62,377.617,596.094,375.07z M393.939,370.69c0-7.809,6.356-14.166,14.166-14.166
			c3.035,0,5.974,1.012,8.5,2.927c1.37,1.041,3.089,1.481,4.791,1.249c1.699-0.242,3.234-1.149,4.259-2.522
			c4.042-5.416,10.169-8.525,16.796-8.525c3.588,0,7.098,0.978,10.428,2.905c2.423,1.398,5.457,1.074,7.534-0.795
			c6.419-5.791,14.678-8.975,23.244-8.975c8.575,0,16.838,3.184,23.249,8.975c2.072,1.869,5.115,2.193,7.534,0.795
			c3.334-1.927,6.843-2.905,10.431-2.905c6.623,0,12.746,3.109,16.793,8.525c1.027,1.374,2.56,2.281,4.258,2.522
			c1.707,0.233,3.426-0.208,4.791-1.245c2.527-1.919,5.466-2.931,8.5-2.931c7.813,0,14.166,6.356,14.166,14.166v0.425h-0.408
			c-11.131,0-20.192,9.058-20.192,20.18v8.167v5.57v27.385c0,0.033-0.005,0.064-0.005,0.097v7.951c-0.033,0.391-0.033,0.774,0,1.157
			v4.621c0,4.029-3.271,7.301-7.297,7.301s-7.297-3.271-7.297-7.301v-54.947c0-11.123-9.054-20.18-20.176-20.18
			c-5.387,0-10.453,2.098-14.262,5.886c-3.817,3.805-5.915,8.867-5.915,14.257v53.194c0,0.054,0,0.116,0,0.183v26.035v9.914v27.478
			v7.733v6.007c0,4.021-3.276,7.298-7.298,7.298c-4.024,0-7.296-3.277-7.296-7.298V391.316c0-11.135-9.066-20.201-20.215-20.201
			h-13.761c-11.093,0-20.118,9.058-20.118,20.18c0,4.03-3.272,7.301-7.297,7.301c-4.021,0-7.293-3.271-7.293-7.305
			c0-11.119-9.042-20.176-20.151-20.176h-0.458V370.69z M525.304,391.295v47.138c-2.469,0.829-5.258,1.374-9.607,1.374
			c-1.998,0-3.626-0.125-4.995-0.313v-48.236c0-1.944,0.753-3.768,2.131-5.133c1.374-1.374,3.21-2.131,5.171-2.131
			C522.027,383.995,525.304,387.27,525.304,391.295z M380.223,384.452c0-0.117,0.05-0.225,0.146-0.325
			c0.083-0.083,0.183-0.125,0.295-0.125l13.732-0.008c4.008,0,7.268,3.275,7.268,7.301c0,11.131,9.054,20.177,20.176,20.177
			c11.126,0,20.176-9.046,20.176-20.181c0-4.021,3.247-7.297,7.239-7.297h13.761c4.043,0,7.335,3.284,7.335,7.322v43.537
			c-1.985,0.641-3.688,1.365-5.27,2.04c-3.801,1.624-6.806,2.914-13.508,2.914c-6.702,0-9.699-1.286-13.504-2.914
			c-4.325-1.856-9.237-3.955-18.574-3.955c-9.341,0-14.245,2.098-18.565,3.955c-3.801,1.628-6.802,2.914-13.5,2.914
			c-1.735,0-3.292-0.092-4.732-0.279C381.276,423.365,380.394,405.261,380.223,384.452z M563.362,547.062
			c-11.318,40.498-23.015,82.379-24.218,160.295c-0.063,3.967-3.322,7.193-7.264,7.193h-96.449c-3.938,0-7.193-3.227-7.255-7.193
			c-1.211-77.916-12.908-119.797-24.214-160.295c-7.934-28.381-15.564-55.717-19.952-94.488c1.103,0.071,2.235,0.112,3.421,0.112
			c9.341,0,14.241-2.102,18.57-3.954c3.8-1.628,6.797-2.914,13.495-2.914s9.703,1.286,13.508,2.914
			c4.325,1.852,9.233,3.954,18.57,3.954c9.345,0,14.249-2.102,18.582-3.954c0.066-0.025,0.129-0.059,0.195-0.083v73.154
			c0,11.122,9.05,20.181,20.176,20.181c11.123,0,20.173-9.059,20.173-20.181v-6.007v-7.733v-27.478v-9.914v-18.218
			c1.586,0.15,3.238,0.233,4.995,0.233c4.237,0,7.56-0.441,10.327-1.082c2.356,8.533,10.183,14.819,19.452,14.819
			c9.72,0,17.854-6.902,19.756-16.068c3.534,1.274,7.918,2.331,14.527,2.331c1.232,0,2.41-0.042,3.551-0.121
			C578.919,491.34,571.284,518.681,563.362,547.062z M584.621,439.511c-1.478,0.196-3.076,0.296-4.87,0.296
			c-6.682,0-9.678-1.286-13.479-2.914c-0.2-0.092-0.412-0.175-0.62-0.267v-0.997v-3.115v-27.482v-5.57v-8.167
			c0-4.025,3.288-7.301,7.317-7.301h13.675c0.112,0,0.216,0.054,0.308,0.141c0.092,0.1,0.138,0.204,0.138,0.316
			C586.927,405.253,586.045,423.356,584.621,439.511z"/>
		<path d="M518.003,687.075h-68.684c-3.559,0-6.444,2.885-6.444,6.445c0,3.555,2.885,6.436,6.444,6.436h68.684
			c3.555,0,6.439-2.881,6.439-6.436C524.442,689.96,521.558,687.075,518.003,687.075z"/>
	</g>
</g>
</svg>
