<?xml version="1.0" encoding="utf-8"?>
<!-- Generator: Adobe Illustrator 16.0.0, SVG Export Plug-In . SVG Version: 6.00 Build 0)  -->
<!DOCTYPE svg PUBLIC "-//W3C//DTD SVG 1.1//EN" "http://www.w3.org/Graphics/SVG/1.1/DTD/svg11.dtd">
<svg version="1.1" id="Layer_1" xmlns="http://www.w3.org/2000/svg" xmlns:xlink="http://www.w3.org/1999/xlink" x="0px" y="0px"
	 width="1000px" height="1000px" viewBox="0 0 1000 1000" enable-background="new 0 0 1000 1000" xml:space="preserve">
<g>
	<g>
		<path fill="#F17F42" d="M483.663,347.195c-77.504,0-140.556,63.052-140.556,140.553c0,103.693,129.681,226.933,135.201,232.132
			c1.513,1.41,3.434,2.125,5.354,2.125c1.916,0,3.842-0.715,5.354-2.125c5.521-5.199,135.193-128.439,135.193-232.132
			C624.21,410.248,561.166,347.195,483.663,347.195L483.663,347.195z M483.663,565.832c-43.052,0-78.088-35.03-78.088-78.083
			c0-43.053,35.036-78.085,78.088-78.085c43.051,0,78.083,35.033,78.083,78.085C561.746,530.8,526.714,565.832,483.663,565.832
			L483.663,565.832z M483.663,565.832"/>
		<path d="M483.663,727.43c-3.368,0-6.584-1.271-9.057-3.584c-5.607-5.277-136.927-130.123-136.927-236.097
			c0-80.493,65.488-145.979,145.983-145.979c80.49,0,145.975,65.486,145.975,145.979c0,105.978-131.312,230.82-136.902,236.083
			C490.247,726.158,487.03,727.43,483.663,727.43z M483.663,352.623c-74.512,0-135.129,60.619-135.129,135.126
			c0,101.343,128.042,223.046,133.494,228.181c0.883,0.828,2.37,0.842,3.285-0.014c5.436-5.121,133.474-126.82,133.474-228.167
			C618.787,413.241,558.171,352.623,483.663,352.623z M483.663,571.26c-46.051,0-83.512-37.463-83.512-83.511
			c0-46.049,37.461-83.513,83.512-83.513c46.047,0,83.511,37.464,83.511,83.513C567.174,533.797,529.71,571.26,483.663,571.26z
			 M483.663,415.088c-40.068,0-72.661,32.595-72.661,72.66c0,40.066,32.593,72.658,72.661,72.658
			c40.063,0,72.656-32.592,72.656-72.658C556.319,447.683,523.727,415.088,483.663,415.088z"/>
	</g>
</g>
</svg>
